<svg xmlns="http://www.w3.org/2000/svg" width="492.81589" height="196.22889" viewBox="0 0 492.81589 196.22889">
  <title>Untitled-1</title>
  <g>
    <polygon points="369.485 35.943 400.18 18.221 400.184 53.664 369.485 35.943" style="fill: none;stroke: #70d3e0;stroke-linecap: round;stroke-linejoin: round"/>
    <polygon points="369.485 106.828 400.18 89.106 400.184 124.549 369.485 106.828" style="fill: none;stroke: #70d3e0;stroke-linecap: round;stroke-linejoin: round"/>
    <polygon points="369.485 71.386 400.183 53.664 400.171 89.106 369.485 71.386" style="fill: none;stroke: #70d3e0;stroke-linecap: round;stroke-linejoin: round"/>
    <polygon points="430.866 106.828 461.573 89.106 461.561 124.549 430.866 106.828" style="fill: none;stroke: #70d3e0;stroke-linecap: round;stroke-linejoin: round"/>
    <polygon points="461.57 89.108 492.269 71.386 492.267 106.83 461.57 89.108" style="fill: none;stroke: #70d3e0;stroke-linecap: round;stroke-linejoin: round"/>
    <polygon points="400.18 18.216 430.875 0.5 430.877 35.943 400.18 18.216" style="fill: none;stroke: #70d3e0;stroke-linecap: round;stroke-linejoin: round"/>
    <polygon points="430.877 35.943 400.184 53.664 400.18 18.221 430.877 35.943" style="fill: none;stroke: #70d3e0;stroke-linecap: round;stroke-linejoin: round"/>
    <polygon points="400.171 89.106 369.49 106.828 369.438 71.354 400.171 89.106" style="fill: none;stroke: #70d3e0;stroke-linecap: round;stroke-linejoin: round"/>
    <polygon points="430.884 106.843 400.204 124.565 400.152 89.09 430.884 106.843" style="fill: none;stroke: #70d3e0;stroke-linecap: round;stroke-linejoin: round"/>
    <polygon points="492.316 106.865 461.561 124.549 461.572 89.11 492.316 106.865" style="fill: none;stroke: #70d3e0;stroke-linecap: round;stroke-linejoin: round"/>
    <polygon points="492.269 71.386 461.573 89.106 461.568 53.664 492.269 71.386" style="fill: none;stroke: #70d3e0;stroke-linecap: round;stroke-linejoin: round"/>
    <polygon points="492.265 35.943 461.57 53.665 430.877 35.943 430.875 0.5 492.265 35.943" style="fill: none;stroke: #70d3e0;stroke-linecap: round;stroke-linejoin: round"/>
    <polygon points="415.603 62.587 400.181 53.666 400.171 89.106 415.603 80.196 415.603 62.587" style="fill: none;stroke: #70d3e0;stroke-linecap: round;stroke-linejoin: round"/>
    <polygon points="446.18 80.222 461.572 89.11 461.568 53.666 446.184 62.555 446.18 80.222" style="fill: none;stroke: #70d3e0;stroke-linecap: round;stroke-linejoin: round"/>
    <polygon points="415.603 80.196 400.171 89.106 430.866 106.828 430.851 89.013 415.603 80.196" style="fill: none;stroke: #70d3e0;stroke-linecap: round;stroke-linejoin: round"/>
    <polygon points="446.184 62.555 461.57 53.666 430.877 35.946 430.901 53.761 446.184 62.555" style="fill: none;stroke: #70d3e0;stroke-linecap: round;stroke-linejoin: round"/>
    <polygon points="430.853 89.011 430.866 106.828 461.57 89.108 446.18 80.222 430.853 89.011" style="fill: none;stroke: #70d3e0;stroke-linecap: round;stroke-linejoin: round"/>
    <polygon points="430.901 53.761 430.877 35.943 400.181 53.665 415.603 62.587 430.901 53.761" style="fill: none;stroke: #70d3e0;stroke-linecap: round;stroke-linejoin: round"/>
    <polygon points="430.866 71.384 430.901 53.761 415.603 62.587 415.603 80.196 430.866 71.384" style="fill: none;stroke: #70d3e0;stroke-linecap: round;stroke-linejoin: round"/>
    <polygon points="446.18 80.222 446.184 62.555 430.901 53.761 430.866 71.384 446.18 80.222" style="fill: none;stroke: #70d3e0;stroke-linecap: round;stroke-linejoin: round"/>
    <polygon points="415.603 80.196 430.866 71.384 446.18 80.222 430.853 89.011 415.603 80.196" style="fill: none;stroke: #70d3e0;stroke-linecap: round;stroke-linejoin: round"/>
    <polygon points="338.837 53.395 308.142 71.115 308.137 35.673 338.837 53.395" style="fill: none;stroke: #70d3e0;stroke-linecap: round;stroke-linejoin: round"/>
    <polygon points="368.941 142.572 338.246 160.294 338.242 124.851 368.941 142.572" style="fill: none;stroke: #70d3e0;stroke-linecap: round;stroke-linejoin: round"/>
    <polygon points="368.941 71.687 338.246 89.408 338.242 53.966 368.941 71.687" style="fill: none;stroke: #70d3e0;stroke-linecap: round;stroke-linejoin: round"/>
    <polygon points="368.941 107.129 338.242 124.851 338.255 89.409 368.941 107.129" style="fill: none;stroke: #70d3e0;stroke-linecap: round;stroke-linejoin: round"/>
    <polygon points="307.56 71.687 276.853 89.409 276.865 53.965 307.56 71.687" style="fill: none;stroke: #70d3e0;stroke-linecap: round;stroke-linejoin: round"/>
    <polygon points="276.855 89.407 246.157 107.129 246.159 71.685 276.855 89.407" style="fill: none;stroke: #70d3e0;stroke-linecap: round;stroke-linejoin: round"/>
    <polygon points="338.246 160.298 307.551 178.015 307.549 142.572 338.246 160.298" style="fill: none;stroke: #70d3e0;stroke-linecap: round;stroke-linejoin: round"/>
    <polygon points="307.549 142.572 338.242 124.851 338.246 160.294 307.549 142.572" style="fill: none;stroke: #70d3e0;stroke-linecap: round;stroke-linejoin: round"/>
    <polygon points="338.255 89.409 368.936 71.687 368.987 107.161 338.255 89.409" style="fill: none;stroke: #70d3e0;stroke-linecap: round;stroke-linejoin: round"/>
    <polygon points="307.541 71.672 338.222 53.95 338.274 89.424 307.541 71.672" style="fill: none;stroke: #70d3e0;stroke-linecap: round;stroke-linejoin: round"/>
    <polygon points="246.11 71.65 276.865 53.965 276.854 89.405 246.11 71.65" style="fill: none;stroke: #70d3e0;stroke-linecap: round;stroke-linejoin: round"/>
    <polygon points="246.157 107.129 276.853 89.409 276.858 124.851 246.157 107.129" style="fill: none;stroke: #70d3e0;stroke-linecap: round;stroke-linejoin: round"/>
    <polygon points="246.161 142.572 276.856 124.849 307.549 142.572 307.551 178.015 246.161 142.572" style="fill: none;stroke: #70d3e0;stroke-linecap: round;stroke-linejoin: round"/>
    <polygon points="322.822 115.927 338.245 124.849 338.255 89.409 322.822 98.319 322.822 115.927" style="fill: none;stroke: #70d3e0;stroke-linecap: round;stroke-linejoin: round"/>
    <polygon points="292.246 98.293 276.854 89.405 276.858 124.849 292.242 115.96 292.246 98.293" style="fill: none;stroke: #70d3e0;stroke-linecap: round;stroke-linejoin: round"/>
    <polygon points="322.822 98.319 338.255 89.409 307.56 71.687 307.575 89.502 322.822 98.319" style="fill: none;stroke: #70d3e0;stroke-linecap: round;stroke-linejoin: round"/>
    <polygon points="292.242 115.96 276.856 124.849 307.549 142.569 307.525 124.754 292.242 115.96" style="fill: none;stroke: #70d3e0;stroke-linecap: round;stroke-linejoin: round"/>
    <polygon points="307.573 89.504 307.56 71.687 276.855 89.407 292.246 98.293 307.573 89.504" style="fill: none;stroke: #70d3e0;stroke-linecap: round;stroke-linejoin: round"/>
    <polygon points="307.525 124.754 307.549 142.572 338.244 124.85 322.822 115.927 307.525 124.754" style="fill: none;stroke: #70d3e0;stroke-linecap: round;stroke-linejoin: round"/>
    <polygon points="307.56 107.131 307.525 124.754 322.822 115.927 322.822 98.319 307.56 107.131" style="fill: none;stroke: #70d3e0;stroke-linecap: round;stroke-linejoin: round"/>
    <polygon points="292.246 98.293 292.242 115.96 307.525 124.754 307.56 107.131 292.246 98.293" style="fill: none;stroke: #70d3e0;stroke-linecap: round;stroke-linejoin: round"/>
    <polygon points="322.822 98.319 307.56 107.131 292.246 98.293 307.573 89.504 322.822 98.319" style="fill: none;stroke: #70d3e0;stroke-linecap: round;stroke-linejoin: round"/>
    <polygon points="246.157 142.565 215.462 160.286 215.458 124.844 246.157 142.565" style="fill: none;stroke: #70d3e0;stroke-linecap: round;stroke-linejoin: round"/>
    <line x1="215.47123" y1="160.28668" x2="246.15685" y2="178.00669" style="fill: none;stroke: #70d3e0;stroke-linecap: round;stroke-linejoin: round"/>
    <polygon points="184.777 142.565 154.069 160.286 154.082 124.843 184.777 142.565" style="fill: none;stroke: #70d3e0;stroke-linecap: round;stroke-linejoin: round"/>
    <polygon points="154.072 160.285 123.374 178.007 123.375 142.562 154.072 160.285" style="fill: none;stroke: #70d3e0;stroke-linecap: round;stroke-linejoin: round"/>
    <polygon points="215.471 160.287 246.152 142.564 246.204 178.039 215.471 160.287" style="fill: none;stroke: #70d3e0;stroke-linecap: round;stroke-linejoin: round"/>
    <polygon points="184.758 142.55 215.438 124.828 215.49 160.302 184.758 142.55" style="fill: none;stroke: #70d3e0;stroke-linecap: round;stroke-linejoin: round"/>
    <polygon points="123.326 142.528 154.082 124.843 154.07 160.283 123.326 142.528" style="fill: none;stroke: #70d3e0;stroke-linecap: round;stroke-linejoin: round"/>
    <polygon points="123.374 178.007 154.069 160.286 154.074 195.729 123.374 178.007" style="fill: none;stroke: #70d3e0;stroke-linecap: round;stroke-linejoin: round"/>
    <polygon points="246.157 107.122 215.462 124.844 215.458 89.401 246.157 107.122" style="fill: none;stroke: #70d3e0;stroke-linecap: round;stroke-linejoin: round"/>
    <polygon points="246.157 36.237 215.462 53.959 215.458 18.516 246.157 36.237" style="fill: none;stroke: #70d3e0;stroke-linecap: round;stroke-linejoin: round"/>
    <polygon points="246.157 71.679 215.459 89.401 215.471 53.959 246.157 71.679" style="fill: none;stroke: #70d3e0;stroke-linecap: round;stroke-linejoin: round"/>
    <polygon points="215.462 124.849 184.767 142.565 184.765 107.122 215.462 124.849" style="fill: none;stroke: #70d3e0;stroke-linecap: round;stroke-linejoin: round"/>
    <polygon points="184.765 107.122 215.458 89.401 215.462 124.844 184.765 107.122" style="fill: none;stroke: #70d3e0;stroke-linecap: round;stroke-linejoin: round"/>
    <polygon points="215.471 53.959 246.152 36.237 246.204 71.711 215.471 53.959" style="fill: none;stroke: #70d3e0;stroke-linecap: round;stroke-linejoin: round"/>
    <line x1="215.43849" y1="18.5" x2="215.49014" y2="53.9747" style="fill: none;stroke: #70d3e0;stroke-linecap: round;stroke-linejoin: round"/>
    <line x1="154.07392" y1="89.40125" x2="123.3736" y2="71.67922" style="fill: none;stroke: #70d3e0;stroke-linecap: round;stroke-linejoin: round"/>
    <polygon points="123.377 107.122 154.072 89.4 184.765 107.122 184.767 142.565 123.377 107.122" style="fill: none;stroke: #70d3e0;stroke-linecap: round;stroke-linejoin: round"/>
    <line x1="215.46124" y1="89.39907" x2="215.47123" y2="53.95904" style="fill: none;stroke: #70d3e0;stroke-linecap: round;stroke-linejoin: round"/>
    <line x1="154.07217" y1="89.39903" x2="184.76515" y2="107.11891" style="fill: none;stroke: #70d3e0;stroke-linecap: round;stroke-linejoin: round"/>
    <line x1="184.76521" y1="107.12202" x2="215.46067" y2="89.40042" style="fill: none;stroke: #70d3e0;stroke-linecap: round;stroke-linejoin: round"/>
    <polygon points="123.279 177.926 92.585 195.648 92.581 160.205 123.279 177.926" style="fill: none;stroke: #70d3e0;stroke-linecap: round;stroke-linejoin: round"/>
    <polygon points="123.279 107.041 92.585 124.762 92.581 89.32 123.279 107.041" style="fill: none;stroke: #70d3e0;stroke-linecap: round;stroke-linejoin: round"/>
    <polygon points="123.279 142.483 92.581 160.205 92.594 124.763 123.279 142.483" style="fill: none;stroke: #70d3e0;stroke-linecap: round;stroke-linejoin: round"/>
    <line x1="31.2041" y1="89.31945" x2="61.8992" y2="107.041" style="fill: none;stroke: #70d3e0;stroke-linecap: round;stroke-linejoin: round"/>
    <polygon points="61.888 177.926 92.581 160.205 92.585 195.648 61.888 177.926" style="fill: none;stroke: #70d3e0;stroke-linecap: round;stroke-linejoin: round"/>
    <polygon points="92.594 124.763 123.275 107.041 123.326 142.515 92.594 124.763" style="fill: none;stroke: #70d3e0;stroke-linecap: round;stroke-linejoin: round"/>
    <polygon points="61.88 107.026 92.561 89.304 92.613 124.778 61.88 107.026" style="fill: none;stroke: #70d3e0;stroke-linecap: round;stroke-linejoin: round"/>
    <polyline points="123.279 71.499 92.585 89.221 92.581 53.778" style="fill: none;stroke: #70d3e0;stroke-linecap: round;stroke-linejoin: round"/>
    <polygon points="92.585 89.225 61.89 106.942 61.888 71.499 92.585 89.225" style="fill: none;stroke: #70d3e0;stroke-linecap: round;stroke-linejoin: round"/>
    <polygon points="61.888 71.499 92.581 53.778 92.585 89.221 61.888 71.499" style="fill: none;stroke: #70d3e0;stroke-linecap: round;stroke-linejoin: round"/>
    <polygon points="0.5 71.499 31.195 53.776 61.888 71.499 61.89 106.942 0.5 71.499" style="fill: none;stroke: #70d3e0;stroke-linecap: round;stroke-linejoin: round"/>
  </g>
</svg>
